<svg width="23" height="21" viewBox="0 0 23 21" fill="none" xmlns="http://www.w3.org/2000/svg">
  <path d="M20.1272 5.80421C19.4326 5.82642 18.7392 5.87787 18.0489 5.95843C17.9351 5.96878 17.9351 5.97085 17.9382 5.88391C17.9724 5.31254 17.9471 4.73916 17.8626 4.17303C17.7801 3.65094 17.6037 3.14811 17.342 2.68883C17.0582 2.17895 16.6682 1.73598 16.1983 1.38989C15.6807 1.00632 15.0999 0.716285 14.4823 0.532903C13.7754 0.320934 13.045 0.197514 12.3077 0.165474C11.4974 0.118196 10.6843 0.17384 9.88789 0.331076C9.03815 0.492537 8.27017 0.843406 7.68332 1.34125C7.21037 1.74777 6.84224 2.26217 6.61001 2.84098C6.34465 3.5223 6.17064 4.23576 6.09251 4.96275C6.0242 5.47715 5.9828 5.99258 5.96831 6.51009C5.96831 6.54735 5.94761 6.55356 5.9031 6.55149C5.72197 6.54424 5.54188 6.5401 5.36179 6.53079C4.98919 6.51216 4.61555 6.49974 4.24501 6.46041C3.72854 6.40348 3.21414 6.33414 2.69353 6.29377C2.26167 6.2535 1.82621 6.27863 1.40184 6.36829C0.88951 6.46351 0.456876 6.7233 0.213648 7.08038C0.0666767 7.31843 -0.00577404 7.57925 0.00147103 7.84111C0.00561107 8.05122 0.0242413 8.26029 0.0573616 8.46936C0.209416 9.77345 0.413128 11.071 0.668018 12.3589C0.825339 13.1517 1.02303 13.9373 1.28385 14.7146C1.65335 15.8842 2.22674 17.0092 2.98955 18.0608C3.3549 18.5628 3.79478 19.0296 4.30194 19.4529C5.25001 20.253 6.56861 20.7404 7.9783 20.8119C8.4751 20.8408 8.97398 20.8512 9.47182 20.8491C10.0974 20.8474 10.7227 20.8284 11.3473 20.7922C11.9941 20.7549 13.822 20.7032 14.4616 20.6162C15.7907 20.4474 17.0879 20.0848 18.3118 19.5398C19.2568 19.1155 20.0817 18.5514 20.7358 17.8797C21.2443 17.3491 21.6544 16.7323 21.9468 16.0581C22.4032 15.0406 22.4612 14.7332 22.6454 13.662C22.7934 12.7988 22.9414 11.7783 22.9414 10.9296C22.9414 10.3552 22.9414 9.63582 22.9435 9.23941C22.9414 8.91856 22.9197 8.52008 22.9414 8.19922C22.9787 7.82455 23.0553 7.12695 22.9414 6.76056C22.7789 6.212 22.2852 6.16336 21.597 5.9636C21.1187 5.83393 20.6232 5.7798 20.1283 5.80317L20.1272 5.80421ZM8.04247 5.06521C8.0818 4.76299 8.13044 4.4618 8.19875 4.16165C8.28983 3.69796 8.46579 3.24566 8.7204 2.81924C9.0516 2.26965 9.7078 1.87324 10.4841 1.75318C11.1643 1.63412 11.8578 1.60974 12.5448 1.68073C13.0619 1.72564 13.5704 1.84162 14.0559 2.02539C14.7348 2.2976 15.2658 2.74575 15.5535 3.28914C15.7585 3.65967 15.8878 4.05194 15.9386 4.45249C16.0047 5.00095 16.0165 5.55461 15.9738 6.1054C15.9706 6.15094 15.951 6.16439 15.8961 6.16957C15.0536 6.24616 14.2091 6.31861 13.3645 6.37657C12.0817 6.46262 10.7974 6.52266 9.51218 6.55666C9.00916 6.57012 8.50512 6.57219 8.00107 6.5784C7.93897 6.5784 7.91826 6.56908 7.92137 6.51837C7.94207 6.03191 7.9783 5.54856 8.04247 5.06521Z" fill="#27272A"/>
</svg>